<svg width="140" height="43" viewBox="0 0 140 43" fill="none" xmlns="http://www.w3.org/2000/svg">
<path d="M23.0691 30.3C22.0091 30.3 21.0591 30.1 20.2191 29.7C19.3991 29.28 18.7491 28.72 18.2691 28.02C17.8091 27.32 17.5791 26.53 17.5791 25.65C17.5791 24.57 17.8591 23.72 18.4191 23.1C18.9791 22.46 19.8891 22 21.1491 21.72C22.4091 21.44 24.0991 21.3 26.2191 21.3H27.2691V20.67C27.2691 19.67 27.0491 18.95 26.6091 18.51C26.1691 18.07 25.4291 17.85 24.3891 17.85C23.8091 17.85 23.1791 17.92 22.4991 18.06C21.8391 18.2 21.1391 18.44 20.3991 18.78C19.9191 19 19.5191 19.03 19.1991 18.87C18.8791 18.69 18.6591 18.42 18.5391 18.06C18.4391 17.68 18.4591 17.3 18.5991 16.92C18.7591 16.54 19.0691 16.26 19.5291 16.08C20.4491 15.7 21.3291 15.43 22.1691 15.27C23.0291 15.11 23.8091 15.03 24.5091 15.03C26.6491 15.03 28.2391 15.53 29.2791 16.53C30.3191 17.51 30.8391 19.04 30.8391 21.12V28.32C30.8391 29.6 30.2591 30.24 29.0991 30.24C27.9191 30.24 27.3291 29.6 27.3291 28.32V27.66C26.9891 28.48 26.4491 29.13 25.7091 29.61C24.9691 30.07 24.0891 30.3 23.0691 30.3ZM23.8491 27.72C24.8291 27.72 25.6391 27.38 26.2791 26.7C26.9391 26.02 27.2691 25.16 27.2691 24.12V23.46H26.2491C24.3691 23.46 23.0591 23.61 22.3191 23.91C21.5991 24.19 21.2391 24.71 21.2391 25.47C21.2391 26.13 21.4691 26.67 21.9291 27.09C22.3891 27.51 23.0291 27.72 23.8491 27.72ZM36.5653 30.24C35.3253 30.24 34.7053 29.6 34.7053 28.32V16.98C34.7053 15.72 35.3153 15.09 36.5353 15.09C37.7553 15.09 38.3653 15.72 38.3653 16.98V17.58C38.8053 16.78 39.4153 16.16 40.1953 15.72C40.9753 15.26 41.8753 15.03 42.8953 15.03C45.0953 15.03 46.5353 15.99 47.2153 17.91C47.6753 17.01 48.3353 16.31 49.1953 15.81C50.0553 15.29 51.0353 15.03 52.1353 15.03C55.4353 15.03 57.0853 17.04 57.0853 21.06V28.32C57.0853 29.6 56.4553 30.24 55.1953 30.24C53.9553 30.24 53.3353 29.6 53.3353 28.32V21.21C53.3353 20.09 53.1453 19.27 52.7653 18.75C52.4053 18.23 51.7853 17.97 50.9053 17.97C49.9253 17.97 49.1553 18.32 48.5953 19.02C48.0353 19.7 47.7553 20.65 47.7553 21.87V28.32C47.7553 29.6 47.1353 30.24 45.8953 30.24C44.6353 30.24 44.0053 29.6 44.0053 28.32V21.21C44.0053 20.09 43.8153 19.27 43.4353 18.75C43.0753 18.23 42.4653 17.97 41.6053 17.97C40.6253 17.97 39.8553 18.32 39.2953 19.02C38.7353 19.7 38.4553 20.65 38.4553 21.87V28.32C38.4553 29.6 37.8253 30.24 36.5653 30.24ZM65.7839 30.3C64.7239 30.3 63.7739 30.1 62.9339 29.7C62.1139 29.28 61.4639 28.72 60.9839 28.02C60.5239 27.32 60.2939 26.53 60.2939 25.65C60.2939 24.57 60.5739 23.72 61.1339 23.1C61.6939 22.46 62.6039 22 63.8639 21.72C65.1239 21.44 66.8139 21.3 68.9339 21.3H69.9839V20.67C69.9839 19.67 69.7639 18.95 69.3239 18.51C68.8839 18.07 68.1439 17.85 67.1039 17.85C66.5239 17.85 65.8939 17.92 65.2139 18.06C64.5539 18.2 63.8539 18.44 63.1139 18.78C62.6339 19 62.2339 19.03 61.9139 18.87C61.5939 18.69 61.3739 18.42 61.2539 18.06C61.1539 17.68 61.1739 17.3 61.3139 16.92C61.4739 16.54 61.7839 16.26 62.2439 16.08C63.1639 15.7 64.0439 15.43 64.8839 15.27C65.7439 15.11 66.5239 15.03 67.2239 15.03C69.3639 15.03 70.9539 15.53 71.9939 16.53C73.0339 17.51 73.5539 19.04 73.5539 21.12V28.32C73.5539 29.6 72.9739 30.24 71.8139 30.24C70.6339 30.24 70.0439 29.6 70.0439 28.32V27.66C69.7039 28.48 69.1639 29.13 68.4239 29.61C67.6839 30.07 66.8039 30.3 65.7839 30.3ZM66.5639 27.72C67.5439 27.72 68.3539 27.38 68.9939 26.7C69.6539 26.02 69.9839 25.16 69.9839 24.12V23.46H68.9639C67.0839 23.46 65.7739 23.61 65.0339 23.91C64.3139 24.19 63.9539 24.71 63.9539 25.47C63.9539 26.13 64.1839 26.67 64.6439 27.09C65.1039 27.51 65.7439 27.72 66.5639 27.72ZM78.2602 30C77.7402 30 77.3502 29.84 77.0902 29.52C76.8302 29.18 76.7202 28.78 76.7602 28.32C76.8002 27.86 77.0102 27.42 77.3902 27L84.4402 18.15H78.0802C77.1202 18.15 76.6402 17.68 76.6402 16.74C76.6402 15.8 77.1202 15.33 78.0802 15.33H86.9602C87.5602 15.33 88.0002 15.49 88.2802 15.81C88.5802 16.13 88.7102 16.52 88.6702 16.98C88.6502 17.42 88.4502 17.85 88.0702 18.27L80.9302 27.18H87.6502C88.6102 27.18 89.0902 27.65 89.0902 28.59C89.0902 29.53 88.6102 30 87.6502 30H78.2602ZM97.9662 30.3C96.4462 30.3 95.1262 29.99 94.0062 29.37C92.8862 28.75 92.0162 27.87 91.3962 26.73C90.7762 25.57 90.4662 24.21 90.4662 22.65C90.4662 21.09 90.7762 19.74 91.3962 18.6C92.0162 17.46 92.8862 16.58 94.0062 15.96C95.1262 15.34 96.4462 15.03 97.9662 15.03C99.4862 15.03 100.806 15.34 101.926 15.96C103.046 16.58 103.916 17.46 104.536 18.6C105.156 19.74 105.466 21.09 105.466 22.65C105.466 24.21 105.156 25.57 104.536 26.73C103.916 27.87 103.046 28.75 101.926 29.37C100.806 29.99 99.4862 30.3 97.9662 30.3ZM97.9662 27.45C99.0862 27.45 99.9862 27.05 100.666 26.25C101.346 25.43 101.686 24.23 101.686 22.65C101.686 21.05 101.346 19.86 100.666 19.08C99.9862 18.28 99.0862 17.88 97.9662 17.88C96.8462 17.88 95.9462 18.28 95.2662 19.08C94.5862 19.86 94.2462 21.05 94.2462 22.65C94.2462 24.23 94.5862 25.43 95.2662 26.25C95.9462 27.05 96.8462 27.45 97.9662 27.45ZM110.421 30.24C109.181 30.24 108.561 29.6 108.561 28.32V16.98C108.561 15.72 109.171 15.09 110.391 15.09C111.611 15.09 112.221 15.72 112.221 16.98V17.61C112.721 16.77 113.391 16.13 114.231 15.69C115.091 15.25 116.051 15.03 117.111 15.03C120.571 15.03 122.301 17.04 122.301 21.06V28.32C122.301 29.6 121.681 30.24 120.441 30.24C119.181 30.24 118.551 29.6 118.551 28.32V21.24C118.551 20.1 118.331 19.27 117.891 18.75C117.471 18.23 116.811 17.97 115.911 17.97C114.811 17.97 113.931 18.32 113.271 19.02C112.631 19.7 112.311 20.61 112.311 21.75V28.32C112.311 29.6 111.681 30.24 110.421 30.24Z" fill="white"/>
<path fill-rule="evenodd" clip-rule="evenodd" d="M86.4269 37.2638C80.0757 40.6552 70.87 42.4646 62.944 42.4646C51.8305 42.4646 41.8255 39.4868 34.2563 34.5343C33.6617 34.1447 34.1945 33.614 34.9081 33.9173C43.0767 37.3604 53.1769 39.4317 63.6101 39.4317C70.6464 39.4317 78.3868 38.3771 85.504 36.1886C86.5791 35.8577 87.4783 36.6986 86.4269 37.2638Z" fill="#FF9900"/>
<path fill-rule="evenodd" clip-rule="evenodd" d="M89.0674 35.0754C88.2586 34.324 83.7009 34.7203 81.6551 34.8961C81.0319 34.9513 80.9368 34.5583 81.4982 34.2758C85.1281 32.425 91.0845 32.9592 91.7791 33.5796C92.4736 34.2034 91.5983 38.5287 88.1872 40.5931C87.6639 40.9102 87.1643 40.7413 87.3974 40.3208C88.1634 38.9354 89.8809 35.8301 89.0674 35.0754Z" fill="#FF9900"/>
</svg>
